<svg xmlns="http://www.w3.org/2000/svg" xmlns:xlink="http://www.w3.org/1999/xlink" style="display:none">
  <defs>
    <!-- 📚 Books / Bookstack -->
    <symbol id="icon-books" viewBox="0 0 24 24" fill="none" stroke="currentColor" stroke-width="1.5" stroke-linecap="round" stroke-linejoin="round">
      <path d="M4 19.5A2.5 2.5 0 0 1 6.5 17H20"/>
      <path d="M6.5 2H20v20H6.5A2.5 2.5 0 0 1 4 19.5v-15A2.5 2.5 0 0 1 6.5 2z"/>
      <path d="M12 6v7"/>
      <path d="M9 6v7"/>
      <path d="M15 6v7"/>
    </symbol>
    <!-- 🔍 Search / Magnifying Glass -->
    <symbol id="icon-search" viewBox="0 0 24 24" fill="none" stroke="currentColor" stroke-width="1.5" stroke-linecap="round" stroke-linejoin="round">
      <circle cx="11" cy="11" r="8"/>
      <line x1="21" y1="21" x2="16.65" y2="16.65"/>
    </symbol>
    <!-- 🌙 Moon / Dark Mode -->
    <symbol id="icon-moon" viewBox="0 0 24 24" fill="none" stroke="currentColor" stroke-width="1.5" stroke-linecap="round" stroke-linejoin="round">
      <path d="M12 3a6 6 0 0 0 9 9 9 9 0 1 1-9-9Z"/>
    </symbol>
    <!-- 🛒 Shopping Cart -->
    <symbol id="icon-cart" viewBox="0 0 24 24" fill="none" stroke="currentColor" stroke-width="1.5" stroke-linecap="round" stroke-linejoin="round">
      <circle cx="8" cy="21" r="1"/>
      <circle cx="19" cy="21" r="1"/>
      <path d="M2.05 2.05h2l2.66 12.42a2 2 0 0 0 2 1.58h9.78a2 2 0 0 0 1.95-1.57l1.65-7.43H5.12"/>
    </symbol>
    <!-- 🏠 Home / House -->
    <symbol id="icon-home" viewBox="0 0 24 24" fill="none" stroke="currentColor" stroke-width="1.5" stroke-linecap="round" stroke-linejoin="round">
      <path d="m3 9 9-7 9 7v11a2 2 0 0 1-2 2H5a2 2 0 0 1-2-2z"/>
      <polyline points="9 22 9 12 15 12 15 22"/>
    </symbol>
    <!-- ✨ Sparkles -->
    <symbol id="icon-sparkles" viewBox="0 0 24 24" fill="none" stroke="currentColor" stroke-width="1.5" stroke-linecap="round" stroke-linejoin="round">
      <path d="m12 3-1.912 5.813a2 2 0 0 1-1.275 1.275L3 12l5.813 1.912a2 2 0 0 1 1.275 1.275L12 21l1.912-5.813a2 2 0 0 1 1.275-1.275L21 12l-5.813-1.912a2 2 0 0 1-1.275-1.275L12 3Z"/>
      <path d="M5 3v4"/>
      <path d="M19 17v4"/>
      <path d="M3 5h4"/>
      <path d="M17 19h4"/>
    </symbol>
    <!-- ℹ️ Info -->
    <symbol id="icon-info" viewBox="0 0 24 24" fill="none" stroke="currentColor" stroke-width="1.5" stroke-linecap="round" stroke-linejoin="round">
      <circle cx="12" cy="12" r="10"/>
      <line x1="12" y1="16" x2="12" y2="12"/>
      <line x1="12" y1="8" x2="12.01" y2="8"/>
    </symbol>
    <!-- ⚙️ Gear / Services -->
    <symbol id="icon-gear" viewBox="0 0 24 24" fill="none" stroke="currentColor" stroke-width="1.5" stroke-linecap="round" stroke-linejoin="round">
      <circle cx="12" cy="12" r="3"/>
      <path d="M19.4 15a1.65 1.65 0 0 0 .33 1.82l.06.06a2 2 0 0 1-2.83 2.83l-.06-.06a1.65 1.65 0 0 0-1.82-.33 1.65 1.65 0 0 0-1 1.51V21a2 2 0 0 1-4 0v-.09A1.65 1.65 0 0 0 9 19.4a1.65 1.65 0 0 0-1.82.33l-.06.06a2 2 0 0 1-2.83-2.83l.06-.06A1.65 1.65 0 0 0 4.68 15a1.65 1.65 0 0 0-1.51-1H3a2 2 0 0 1 0-4h.09A1.65 1.65 0 0 0 4.6 9a1.65 1.65 0 0 0-.33-1.82l-.06-.06a2 2 0 0 1 2.83-2.83l.06.06A1.65 1.65 0 0 0 9 4.68a1.65 1.65 0 0 0 1-1.51V3a2 2 0 0 1 4 0v.09a1.65 1.65 0 0 0 1 1.51 1.65 1.65 0 0 0 1.82-.33l.06-.06a2 2 0 0 1 2.83 2.83l-.06.06A1.65 1.65 0 0 0 19.4 9a1.65 1.65 0 0 0 1.51 1H21a2 2 0 0 1 0 4h-.09a1.65 1.65 0 0 0-1.51 1z"/>
    </symbol>
    <!-- 📰 Newspaper / Blog -->
    <symbol id="icon-newspaper" viewBox="0 0 24 24" fill="none" stroke="currentColor" stroke-width="1.5" stroke-linecap="round" stroke-linejoin="round">
      <path d="M4 22h16a2 2 0 0 0 2-2V4a2 2 0 0 0-2-2H8a2 2 0 0 0-2 2v16a2 2 0 0 1-2 2Zm0 0a2 2 0 0 1-2-2v-9h2"/>
      <path d="M18 14h-8"/>
      <path d="M15 18h-5"/>
      <path d="M10 6h8v4h-8V6Z"/>
    </symbol>
    <!-- 📬 Mailbox / Contact -->
    <symbol id="icon-mailbox" viewBox="0 0 24 24" fill="none" stroke="currentColor" stroke-width="1.5" stroke-linecap="round" stroke-linejoin="round">
      <path d="M22 17a2 2 0 0 1-2 2H4a2 2 0 0 1-2-2V9.5C2 7 4 5 6.5 5H18c2.2 0 4 1.8 4 4v8Z"/>
      <polyline points="15,9 18,9 18,11"/>
      <path d="M6.5 5C9 5 11 7 11 9.5V17a2 2 0 0 1-2 2v0"/>
      <line x1="6" y1="10" x2="8" y2="10"/>
    </symbol>
    <!-- 📖 Open Book -->
    <symbol id="icon-open-book" viewBox="0 0 24 24" fill="none" stroke="currentColor" stroke-width="1.5" stroke-linecap="round" stroke-linejoin="round">
      <path d="M2 3h6a4 4 0 0 1 4 4v14a3 3 0 0 0-3-3H2z"/>
      <path d="M22 3h-6a4 4 0 0 0-4 4v14a3 3 0 0 1 3-3h7z"/>
    </symbol>
    <!-- 🧠 Brain -->
    <symbol id="icon-brain" viewBox="0 0 24 24" fill="none" stroke="currentColor" stroke-width="1.5" stroke-linecap="round" stroke-linejoin="round">
      <path d="M12 4.5a2.5 2.5 0 0 0-4.96-.46 2.5 2.5 0 0 0-1.98 3 2.5 2.5 0 0 0 1.32 4.24 3 3 0 0 0 .34 5.58 2.5 2.5 0 0 0 3.32 2.5 2.5 2.5 0 0 0 3.32-2.5 3 3 0 0 0 .34-5.58 2.5 2.5 0 0 0 1.32-4.24 2.5 2.5 0 0 0-1.98-3A2.5 2.5 0 0 0 12 4.5"/>
      <path d="M12 4.5V22"/>
    </symbol>
    <!-- ✍️ Writing Hand -->
    <symbol id="icon-write" viewBox="0 0 24 24" fill="none" stroke="currentColor" stroke-width="1.5" stroke-linecap="round" stroke-linejoin="round">
      <path d="M17 3a2.83 2.83 0 1 1 4 4L7.5 20.5 2 22l1.5-5.5Z"/>
      <path d="m15 5 4 4"/>
    </symbol>
    <!-- 🖊️ Fountain Pen -->
    <symbol id="icon-pen" viewBox="0 0 24 24" fill="none" stroke="currentColor" stroke-width="1.5" stroke-linecap="round" stroke-linejoin="round">
      <path d="M17 3a2.85 2.83 0 1 1 4 4L7.5 20.5 2 22l1.5-5.5Z"/>
      <path d="m15 5 4 4"/>
      <path d="M12 8 2 18"/>
    </symbol>
    <!-- 🎨 Art Palette -->
    <symbol id="icon-palette" viewBox="0 0 24 24" fill="none" stroke="currentColor" stroke-width="1.5" stroke-linecap="round" stroke-linejoin="round">
      <circle cx="13.5" cy="6.5" r=".5" fill="currentColor"/>
      <circle cx="17.5" cy="10.5" r=".5" fill="currentColor"/>
      <circle cx="8.5" cy="7.5" r=".5" fill="currentColor"/>
      <circle cx="6.5" cy="12.5" r=".5" fill="currentColor"/>
      <path d="M12 2C6.5 2 2 6.5 2 12s4.5 10 10 10c.93 0 1.5-.67 1.5-1.5 0-.38-.15-.72-.35-.96a1.5 1.5 0 0 1-.15-1.54c.3-.56.9-.96 1.5-.96h2.5c3.31 0 6-2.69 6-6 0-4.97-4.03-9-9-9z"/>
    </symbol>
    <!-- ⭐ Star -->
    <symbol id="icon-star" viewBox="0 0 24 24" fill="none" stroke="currentColor" stroke-width="1.5" stroke-linecap="round" stroke-linejoin="round">
      <polygon points="12 2 15.09 8.26 22 9.27 17 14.14 18.18 21.02 12 17.77 5.82 21.02 7 14.14 2 9.27 8.91 8.26 12 2"/>
    </symbol>
    <!-- Star filled (for ratings) -->
    <symbol id="icon-star-filled" viewBox="0 0 24 24" fill="currentColor" stroke="currentColor" stroke-width="1.5" stroke-linecap="round" stroke-linejoin="round">
      <polygon points="12 2 15.09 8.26 22 9.27 17 14.14 18.18 21.02 12 17.77 5.82 21.02 7 14.14 2 9.27 8.91 8.26 12 2"/>
    </symbol>
    <!-- Star half (for ratings) -->
    <symbol id="icon-star-half" viewBox="0 0 24 24" fill="none" stroke="currentColor" stroke-width="1.5" stroke-linecap="round" stroke-linejoin="round">
      <polygon points="12 2 15.09 8.26 22 9.27 17 14.14 18.18 21.02 12 17.77 5.82 21.02 7 14.14 2 9.27 8.91 8.26 12 2"/>
      <path d="M12 2v15.77l-6.18 3.25L7 14.14 2 9.27l6.91-1.01L12 2Z" fill="currentColor"/>
    </symbol>
    <!-- 🌿 Leaf / Herb -->
    <symbol id="icon-leaf" viewBox="0 0 24 24" fill="none" stroke="currentColor" stroke-width="1.5" stroke-linecap="round" stroke-linejoin="round">
      <path d="M11 20A7 7 0 0 1 9.8 6.1C15.5 5 17 4.48 19 2c1 2 2 4.18 2 8 0 5.5-4.78 10-10 10Z"/>
      <path d="M2 21c0-3 1.85-5.36 5.08-6C9.5 14.52 12 13 13 12"/>
    </symbol>
    <!-- 🏆 Trophy -->
    <symbol id="icon-trophy" viewBox="0 0 24 24" fill="none" stroke="currentColor" stroke-width="1.5" stroke-linecap="round" stroke-linejoin="round">
      <path d="M6 9H4.5a2.5 2.5 0 0 1 0-5H6"/>
      <path d="M18 9h1.5a2.5 2.5 0 0 0 0-5H18"/>
      <path d="M4 22h16"/>
      <path d="M10 14.66V17c0 .55-.47.98-.97 1.21C7.85 18.75 7 20.24 7 22"/>
      <path d="M14 14.66V17c0 .55.47.98.97 1.21C16.15 18.75 17 20.24 17 22"/>
      <path d="M18 2H6v7a6 6 0 0 0 12 0V2Z"/>
    </symbol>
    <!-- ❤️ Heart -->
    <symbol id="icon-heart" viewBox="0 0 24 24" fill="none" stroke="currentColor" stroke-width="1.5" stroke-linecap="round" stroke-linejoin="round">
      <path d="M20.84 4.61a5.5 5.5 0 0 0-7.78 0L12 5.67l-1.06-1.06a5.5 5.5 0 0 0-7.78 7.78l1.06 1.06L12 21.23l7.78-7.78 1.06-1.06a5.5 5.5 0 0 0 0-7.78z"/>
    </symbol>
    <!-- 🤍 White Heart (outline) -->
    <symbol id="icon-heart-outline" viewBox="0 0 24 24" fill="none" stroke="currentColor" stroke-width="1.5" stroke-linecap="round" stroke-linejoin="round">
      <path d="M20.84 4.61a5.5 5.5 0 0 0-7.78 0L12 5.67l-1.06-1.06a5.5 5.5 0 0 0-7.78 7.78l1.06 1.06L12 21.23l7.78-7.78 1.06-1.06a5.5 5.5 0 0 0 0-7.78z"/>
    </symbol>
    <!-- 📓 Notebook -->
    <symbol id="icon-notebook" viewBox="0 0 24 24" fill="none" stroke="currentColor" stroke-width="1.5" stroke-linecap="round" stroke-linejoin="round">
      <path d="M4 19.5A2.5 2.5 0 0 1 6.5 17H20"/>
      <path d="M6.5 2H20v20H6.5A2.5 2.5 0 0 1 4 19.5v-15A2.5 2.5 0 0 1 6.5 2z"/>
      <path d="M8 7h8"/>
      <path d="M8 11h6"/>
      <path d="M8 15h4"/>
    </symbol>
    <!-- 🎟️ Ticket -->
    <symbol id="icon-ticket" viewBox="0 0 24 24" fill="none" stroke="currentColor" stroke-width="1.5" stroke-linecap="round" stroke-linejoin="round">
      <path d="M2 9a3 3 0 0 1 0 6v2a2 2 0 0 0 2 2h16a2 2 0 0 0 2-2v-2a3 3 0 0 1 0-6V7a2 2 0 0 0-2-2H4a2 2 0 0 0-2 2Z"/>
      <path d="M13 5v2"/>
      <path d="M13 17v2"/>
      <path d="M13 11v2"/>
    </symbol>
    <!-- 📷 Camera -->
    <symbol id="icon-camera" viewBox="0 0 24 24" fill="none" stroke="currentColor" stroke-width="1.5" stroke-linecap="round" stroke-linejoin="round">
      <path d="M23 19a2 2 0 0 1-2 2H3a2 2 0 0 1-2-2V8a2 2 0 0 1 2-2h4l2-3h6l2 3h4a2 2 0 0 1 2 2z"/>
      <circle cx="12" cy="13" r="4"/>
    </symbol>
    <!-- 📞 Phone -->
    <symbol id="icon-phone" viewBox="0 0 24 24" fill="none" stroke="currentColor" stroke-width="1.5" stroke-linecap="round" stroke-linejoin="round">
      <path d="M22 16.92v3a2 2 0 0 1-2.18 2 19.79 19.79 0 0 1-8.63-3.07 19.5 19.5 0 0 1-6-6 19.79 19.79 0 0 1-3.07-8.67A2 2 0 0 1 4.11 2h3a2 2 0 0 1 2 1.72c.127.96.361 1.903.7 2.81a2 2 0 0 1-.45 2.11L8.09 9.91a16 16 0 0 0 6 6l1.27-1.27a2 2 0 0 1 2.11-.45c.907.339 1.85.573 2.81.7A2 2 0 0 1 22 16.92z"/>
    </symbol>
    <!-- ✉️ Envelope / Mail -->
    <symbol id="icon-envelope" viewBox="0 0 24 24" fill="none" stroke="currentColor" stroke-width="1.5" stroke-linecap="round" stroke-linejoin="round">
      <rect x="2" y="4" width="20" height="16" rx="2"/>
      <path d="m22 7-8.97 5.7a1.94 1.94 0 0 1-2.06 0L2 7"/>
    </symbol>
    <!-- 🕐 Clock -->
    <symbol id="icon-clock" viewBox="0 0 24 24" fill="none" stroke="currentColor" stroke-width="1.5" stroke-linecap="round" stroke-linejoin="round">
      <circle cx="12" cy="12" r="10"/>
      <polyline points="12 6 12 12 16 14"/>
    </symbol>
    <!-- 🎉 Party Popper -->
    <symbol id="icon-party" viewBox="0 0 24 24" fill="none" stroke="currentColor" stroke-width="1.5" stroke-linecap="round" stroke-linejoin="round">
      <path d="M5.8 11.3 2 22l10.7-3.79"/>
      <path d="M4 3h.01"/>
      <path d="M22 8h.01"/>
      <path d="M15 2h.01"/>
      <path d="M22 2h.01"/>
      <path d="M22 2 11.5 12.5"/>
      <path d="M6 12.5 17.5 3"/>
      <path d="M12 8.5 20.5 17"/>
    </symbol>
    <!-- 🎁 Gift -->
    <symbol id="icon-gift" viewBox="0 0 24 24" fill="none" stroke="currentColor" stroke-width="1.5" stroke-linecap="round" stroke-linejoin="round">
      <polyline points="20 12 20 22 4 22 4 12"/>
      <rect x="2" y="7" width="20" height="5"/>
      <line x1="12" y1="22" x2="12" y2="7"/>
      <path d="M12 7H7.5a2.5 2.5 0 0 1 0-5C11 2 12 7 12 7z"/>
      <path d="M12 7h4.5a2.5 2.5 0 0 0 0-5C13 2 12 7 12 7z"/>
    </symbol>
    <!-- 📅 Calendar -->
    <symbol id="icon-calendar" viewBox="0 0 24 24" fill="none" stroke="currentColor" stroke-width="1.5" stroke-linecap="round" stroke-linejoin="round">
      <rect x="3" y="4" width="18" height="18" rx="2" ry="2"/>
      <line x1="16" y1="2" x2="16" y2="6"/>
      <line x1="8" y1="2" x2="8" y2="6"/>
      <line x1="3" y1="10" x2="21" y2="10"/>
    </symbol>
    <!-- 🥉 Bronze Medal -->
    <symbol id="icon-medal-bronze" viewBox="0 0 24 24" fill="none" stroke="currentColor" stroke-width="1.5" stroke-linecap="round" stroke-linejoin="round">
      <circle cx="12" cy="8" r="6"/>
      <path d="M15.477 12.89 17 22l-5-3-5 3 1.523-9.11"/>
      <circle cx="12" cy="8" r="2" fill="currentColor"/>
    </symbol>
    <!-- 🥈 Silver Medal -->
    <symbol id="icon-medal-silver" viewBox="0 0 24 24" fill="none" stroke="currentColor" stroke-width="1.5" stroke-linecap="round" stroke-linejoin="round">
      <circle cx="12" cy="8" r="6"/>
      <path d="M15.477 12.89 17 22l-5-3-5 3 1.523-9.11"/>
      <circle cx="12" cy="8" r="2" fill="currentColor"/>
    </symbol>
    <!-- 🥇 Gold Medal -->
    <symbol id="icon-medal-gold" viewBox="0 0 24 24" fill="none" stroke="currentColor" stroke-width="1.5" stroke-linecap="round" stroke-linejoin="round">
      <circle cx="12" cy="8" r="6"/>
      <path d="M15.477 12.89 17 22l-5-3-5 3 1.523-9.11"/>
      <circle cx="12" cy="8" r="2" fill="currentColor"/>
    </symbol>
    <!-- 💎 Diamond / Gem -->
    <symbol id="icon-gem" viewBox="0 0 24 24" fill="none" stroke="currentColor" stroke-width="1.5" stroke-linecap="round" stroke-linejoin="round">
      <path d="M2 8 8 2h8l6 6-6 10-8-10Z"/>
      <path d="M2 8h20"/>
    </symbol>
    <!-- 🗒️ Notepad -->
    <symbol id="icon-notepad" viewBox="0 0 24 24" fill="none" stroke="currentColor" stroke-width="1.5" stroke-linecap="round" stroke-linejoin="round">
      <path d="M8 6h8"/>
      <path d="M8 10h6"/>
      <path d="M8 14h4"/>
      <rect x="4" y="2" width="16" height="20" rx="2"/>
      <path d="M18 22H6a2 2 0 0 1-2-2V4a2 2 0 0 1 2-2h12a2 2 0 0 1 2 2v16a2 2 0 0 1-2 2z"/>
    </symbol>
    <!-- 📮 Postbox -->
    <symbol id="icon-postbox" viewBox="0 0 24 24" fill="none" stroke="currentColor" stroke-width="1.5" stroke-linecap="round" stroke-linejoin="round">
      <rect x="2" y="4" width="20" height="16" rx="2"/>
      <path d="M2 8h20"/>
      <rect x="6" y="12" width="4" height="4" rx="1"/>
    </symbol>
    <!-- 🎭 Theater Masks -->
    <symbol id="icon-theater" viewBox="0 0 24 24" fill="none" stroke="currentColor" stroke-width="1.5" stroke-linecap="round" stroke-linejoin="round">
      <path d="M12 2c-3 0-5 1.5-5 4 0 1.5 1 2.5 2.5 3L8 12h8l-1.5-3C17 8.5 18 7.5 18 6c0-2.5-2-4-6-4Z"/>
      <circle cx="9" cy="7" r=".5" fill="currentColor"/>
      <circle cx="15" cy="7" r=".5" fill="currentColor"/>
      <path d="M5 14a3 3 0 0 0 2.5 3c-.94.38-1.5 1.17-1.5 2 0 1.66 2.69 3 6 3s6-1.34 6-3c0-.83-.56-1.62-1.5-2A3 3 0 0 0 19 14"/>
    </symbol>
    <!-- 🏛️ Classical Building -->
    <symbol id="icon-building-columns" viewBox="0 0 24 24" fill="none" stroke="currentColor" stroke-width="1.5" stroke-linecap="round" stroke-linejoin="round">
      <path d="M3 21h18"/>
      <path d="M6 21V9"/>
      <path d="M10 21V9"/>
      <path d="M14 21V9"/>
      <path d="M18 21V9"/>
      <path d="M2 9h20"/>
      <path d="M6 3h12l4 6H2l4-6Z"/>
    </symbol>
    <!-- 🌳 Tree -->
    <symbol id="icon-tree" viewBox="0 0 24 24" fill="none" stroke="currentColor" stroke-width="1.5" stroke-linecap="round" stroke-linejoin="round">
      <path d="M12 22v-8"/>
      <path d="M12 2C8 2 4 6 4 10c0 2.5 1.5 4.5 3 6h10c1.5-1.5 3-3.5 3-6 0-4-4-8-8-8Z"/>
      <path d="M12 2v4"/>
    </symbol>
    <!-- ☕ Coffee / Tea -->
    <symbol id="icon-coffee" viewBox="0 0 24 24" fill="none" stroke="currentColor" stroke-width="1.5" stroke-linecap="round" stroke-linejoin="round">
      <path d="M17 8h1a4 4 0 1 1 0 8h-1"/>
      <path d="M3 8h14v9a4 4 0 0 1-4 4H7a4 4 0 0 1-4-4Z"/>
      <line x1="6" y1="2" x2="6" y2="4"/>
      <line x1="10" y1="2" x2="10" y2="4"/>
      <line x1="14" y1="2" x2="14" y2="4"/>
    </symbol>
    <!-- 🚚 Delivery Truck -->
    <symbol id="icon-truck" viewBox="0 0 24 24" fill="none" stroke="currentColor" stroke-width="1.5" stroke-linecap="round" stroke-linejoin="round">
      <rect x="1" y="3" width="15" height="13"/>
      <polygon points="16 8 20 8 23 11 23 16 16 16 16 8"/>
      <circle cx="5.5" cy="18.5" r="2.5"/>
      <circle cx="18.5" cy="18.5" r="2.5"/>
    </symbol>
    <!-- 🌍 Globe -->
    <symbol id="icon-globe" viewBox="0 0 24 24" fill="none" stroke="currentColor" stroke-width="1.5" stroke-linecap="round" stroke-linejoin="round">
      <circle cx="12" cy="12" r="10"/>
      <line x1="2" y1="12" x2="22" y2="12"/>
      <path d="M12 2a15.3 15.3 0 0 1 4 10 15.3 15.3 0 0 1-4 10 15.3 15.3 0 0 1-4-10 15.3 15.3 0 0 1 4-10z"/>
    </symbol>
    <!-- 💡 Lightbulb -->
    <symbol id="icon-lightbulb" viewBox="0 0 24 24" fill="none" stroke="currentColor" stroke-width="1.5" stroke-linecap="round" stroke-linejoin="round">
      <path d="M9 18h6"/>
      <path d="M10 22h4"/>
      <path d="M15.09 14c.18-.98.65-1.74 1.41-2.5A4.65 4.65 0 0 0 18 8 6 6 0 0 0 6 8c0 1 .23 2.23 1.5 3.5A4.61 4.61 0 0 1 8.91 14"/>
    </symbol>
    <!-- 🤝 Handshake -->
    <symbol id="icon-handshake" viewBox="0 0 24 24" fill="none" stroke="currentColor" stroke-width="1.5" stroke-linecap="round" stroke-linejoin="round">
      <path d="M20.42 4.58a5.4 5.4 0 0 0-7.65 0l-.77.78-.77-.78a5.4 5.4 0 0 0-7.65 0C1.46 6.7 1.33 10.28 4 13l8 8 8-8c2.67-2.72 2.54-6.3.42-8.42z"/>
      <path d="M12 5.36 8.8 8.53a2 2 0 0 0 0 2.83l.71.71a2 2 0 0 0 2.83 0L16 9.36"/>
    </symbol>
    <!-- 🔧 Wrench -->
    <symbol id="icon-wrench" viewBox="0 0 24 24" fill="none" stroke="currentColor" stroke-width="1.5" stroke-linecap="round" stroke-linejoin="round">
      <path d="M14.7 6.3a1 1 0 0 0 0 1.4l1.6 1.6a1 1 0 0 0 1.4 0l3.77-3.77a6 6 0 0 1-7.94 7.94l-6.91 6.91a2.12 2.12 0 0 1-3-3l6.91-6.91a6 6 0 0 1 7.94-7.94l-3.76 3.76z"/>
    </symbol>
    <!-- ✒️ Nib / Pen Nib -->
    <symbol id="icon-nib" viewBox="0 0 24 24" fill="none" stroke="currentColor" stroke-width="1.5" stroke-linecap="round" stroke-linejoin="round">
      <path d="M11 4H4a2 2 0 0 0-2 2v14a2 2 0 0 0 2 2h14a2 2 0 0 0 2-2v-7"/>
      <path d="M18.5 2.5a2.12 2.12 0 0 1 3 3L12 15l-4 1 1-4Z"/>
    </symbol>
    <!-- ⏱️ Stopwatch -->
    <symbol id="icon-stopwatch" viewBox="0 0 24 24" fill="none" stroke="currentColor" stroke-width="1.5" stroke-linecap="round" stroke-linejoin="round">
      <circle cx="12" cy="13" r="8"/>
      <line x1="12" y1="9" x2="12" y2="13"/>
      <line x1="12" y1="2" x2="12" y2="5"/>
      <line x1="10" y1="2" x2="14" y2="2"/>
    </symbol>
    <!-- ☀️ Sun -->
    <symbol id="icon-sun" viewBox="0 0 24 24" fill="none" stroke="currentColor" stroke-width="1.5" stroke-linecap="round" stroke-linejoin="round">
      <circle cx="12" cy="12" r="4"/>
      <path d="M12 2v2"/>
      <path d="M12 20v2"/>
      <path d="m4.93 4.93 1.41 1.41"/>
      <path d="m17.66 17.66 1.41 1.41"/>
      <path d="M2 12h2"/>
      <path d="M20 12h2"/>
      <path d="m6.34 17.66-1.41 1.41"/>
      <path d="m19.07 4.93-1.41 1.41"/>
    </symbol>
    <!-- 📄 Document -->
    <symbol id="icon-document" viewBox="0 0 24 24" fill="none" stroke="currentColor" stroke-width="1.5" stroke-linecap="round" stroke-linejoin="round">
      <path d="M14 2H6a2 2 0 0 0-2 2v16a2 2 0 0 0 2 2h12a2 2 0 0 0 2-2V8z"/>
      <polyline points="14 2 14 8 20 8"/>
      <line x1="16" y1="13" x2="8" y2="13"/>
      <line x1="16" y1="17" x2="8" y2="17"/>
    </symbol>
    <!-- 🏢 Office Building -->
    <symbol id="icon-building" viewBox="0 0 24 24" fill="none" stroke="currentColor" stroke-width="1.5" stroke-linecap="round" stroke-linejoin="round">
      <rect x="4" y="2" width="16" height="20" rx="2" ry="2"/>
      <path d="M9 22v-4h6v4"/>
      <line x1="8" y1="6" x2="10" y2="6"/>
      <line x1="14" y1="6" x2="16" y2="6"/>
      <line x1="8" y1="10" x2="10" y2="10"/>
      <line x1="14" y1="10" x2="16" y2="10"/>
      <line x1="8" y1="14" x2="10" y2="14"/>
      <line x1="14" y1="14" x2="16" y2="14"/>
    </symbol>
    <!-- 📍 Map Pin -->
    <symbol id="icon-map-pin" viewBox="0 0 24 24" fill="none" stroke="currentColor" stroke-width="1.5" stroke-linecap="round" stroke-linejoin="round">
      <path d="M21 10c0 7-9 13-9 13s-9-6-9-13a9 9 0 0 1 18 0z"/>
      <circle cx="12" cy="10" r="3"/>
    </symbol>
    <!-- 🔗 Link -->
    <symbol id="icon-link" viewBox="0 0 24 24" fill="none" stroke="currentColor" stroke-width="1.5" stroke-linecap="round" stroke-linejoin="round">
      <path d="M10 13a5 5 0 0 0 7.54.54l3-3a5 5 0 0 0-7.07-7.07l-1.72 1.71"/>
      <path d="M14 11a5 5 0 0 0-7.54-.54l-3 3a5 5 0 0 0 7.07 7.07l1.71-1.71"/>
    </symbol>
    <!-- Close / X icon -->
    <symbol id="icon-close" viewBox="0 0 24 24" fill="none" stroke="currentColor" stroke-width="1.5" stroke-linecap="round" stroke-linejoin="round">
      <line x1="18" y1="6" x2="6" y2="18"/>
      <line x1="6" y1="6" x2="18" y2="18"/>
    </symbol>
    <!-- Arrow Right -->
    <symbol id="icon-arrow-right" viewBox="0 0 24 24" fill="none" stroke="currentColor" stroke-width="1.5" stroke-linecap="round" stroke-linejoin="round">
      <line x1="5" y1="12" x2="19" y2="12"/>
      <polyline points="12 5 19 12 12 19"/>
    </symbol>
    <!-- Arrow Left -->
    <symbol id="icon-arrow-left" viewBox="0 0 24 24" fill="none" stroke="currentColor" stroke-width="1.5" stroke-linecap="round" stroke-linejoin="round">
      <line x1="19" y1="12" x2="5" y2="12"/>
      <polyline points="12 19 5 12 12 5"/>
    </symbol>
    <!-- Arrow Up -->
    <symbol id="icon-arrow-up" viewBox="0 0 24 24" fill="none" stroke="currentColor" stroke-width="1.5" stroke-linecap="round" stroke-linejoin="round">
      <line x1="12" y1="19" x2="12" y2="5"/>
      <polyline points="5 12 12 5 19 12"/>
    </symbol>
    <!-- Checkmark -->
    <symbol id="icon-check" viewBox="0 0 24 24" fill="none" stroke="currentColor" stroke-width="1.5" stroke-linecap="round" stroke-linejoin="round">
      <polyline points="20 6 9 17 4 12"/>
    </symbol>
    <!-- Minus -->
    <symbol id="icon-minus" viewBox="0 0 24 24" fill="none" stroke="currentColor" stroke-width="1.5" stroke-linecap="round" stroke-linejoin="round">
      <line x1="5" y1="12" x2="19" y2="12"/>
    </symbol>
    <!-- Plus -->
    <symbol id="icon-plus" viewBox="0 0 24 24" fill="none" stroke="currentColor" stroke-width="1.5" stroke-linecap="round" stroke-linejoin="round">
      <line x1="12" y1="5" x2="12" y2="19"/>
      <line x1="5" y1="12" x2="19" y2="12"/>
    </symbol>
  </defs>
</svg>
